<svg xmlns="http://www.w3.org/2000/svg" viewBox="0 0 64 64" role="img" aria-label="Sacred Reference">
  <defs>
    <linearGradient id="gold" x1="0%" y1="0%" x2="100%" y2="100%">
      <stop offset="0%" stop-color="#B8860B"/>
      <stop offset="50%" stop-color="#D4A017"/>
      <stop offset="100%" stop-color="#E8C04A"/>
    </linearGradient>
  </defs>
  <!-- Forest circle -->
  <circle cx="32" cy="32" r="32" fill="#0A3D33"/>
  <!-- Soft inner ring -->
  <circle cx="32" cy="32" r="28" fill="none" stroke="#0F5245" stroke-width="1.5"/>
  <!-- Leaf body -->
  <path
    d="M32 12
       C22 22 16 30 16 38
       C16 47 23 54 32 54
       C41 54 48 47 48 38
       C48 30 42 22 32 12Z"
    fill="url(#gold)"
  />
  <!-- Leaf vein -->
  <path
    d="M32 18 L32 50"
    stroke="#062822"
    stroke-width="2"
    stroke-linecap="round"
    opacity="0.55"
  />
  <!-- Side veins -->
  <path
    d="M32 28 C28 30 24 34 22 38
       M32 36 C28 38 25 42 24 46
       M32 28 C36 30 40 34 42 38
       M32 36 C36 38 39 42 40 46"
    stroke="#062822"
    stroke-width="1.25"
    stroke-linecap="round"
    fill="none"
    opacity="0.4"
  />
</svg>
